<?xml version="1.0" encoding="UTF-8" standalone="no"?>
<svg
   xmlns:dc="http://purl.org/dc/elements/1.1/"
   xmlns:cc="http://creativecommons.org/ns#"
   xmlns:rdf="http://www.w3.org/1999/02/22-rdf-syntax-ns#"
   xmlns:svg="http://www.w3.org/2000/svg"
   xmlns="http://www.w3.org/2000/svg"
   xmlns:sodipodi="http://sodipodi.sourceforge.net/DTD/sodipodi-0.dtd"
   xmlns:inkscape="http://www.inkscape.org/namespaces/inkscape"
   width="34"
   height="34"
   viewBox="0 0 34 34"
   class="global-nav__logo"
   version="1.1"
   id="svg8"
   sodipodi:docname="linkedin.svg"
   inkscape:version="0.92.4 (5da689c313, 2019-01-14)">
  <metadata
     id="metadata14">
    <rdf:RDF>
      <cc:Work
         rdf:about="">
        <dc:format>image/svg+xml</dc:format>
        <dc:type
           rdf:resource="http://purl.org/dc/dcmitype/StillImage" />
      </cc:Work>
    </rdf:RDF>
  </metadata>
  <defs
     id="defs12" />
  <sodipodi:namedview
     pagecolor="#ffffff"
     bordercolor="#666666"
     borderopacity="1"
     objecttolerance="10"
     gridtolerance="10"
     guidetolerance="10"
     inkscape:pageopacity="0"
     inkscape:pageshadow="2"
     inkscape:window-width="2560"
     inkscape:window-height="1001"
     id="namedview10"
     showgrid="false"
     inkscape:zoom="6.9411765"
     inkscape:cx="17"
     inkscape:cy="17"
     inkscape:window-x="-9"
     inkscape:window-y="-9"
     inkscape:window-maximized="1"
     inkscape:current-layer="g6" />
  <title
     id="title2">
        LinkedIn
      </title>
  <g
     id="g6">
    <path
       d="M34,2.5v29A2.5,2.5,0,0,1,31.5,34H2.5A2.5,2.5,0,0,1,0,31.5V2.5A2.5,2.5,0,0,1,2.5,0h29A2.5,2.5,0,0,1,34,2.5ZM10,13H5V29h5Zm.45-5.5A2.88,2.88,0,0,0,7.59,4.6H7.5a2.9,2.9,0,0,0,0,5.8h0a2.88,2.88,0,0,0,2.95-2.81ZM29,19.28c0-4.81-3.06-6.68-6.1-6.68a5.7,5.7,0,0,0-5.06,2.58H17.7V13H13V29h5V20.49a3.32,3.32,0,0,1,3-3.58h.19c1.59,0,2.77,1,2.77,3.52V29h5Z"
       data-darkreader-inline-fill=""
       style="fill:#0a66c2;fill-opacity:1"
       id="path4"
       fill="currentColor" />
  </g>
</svg>
